<svg width="350" height="330" viewBox="0 0 350 330" fill="none" xmlns="http://www.w3.org/2000/svg">
  <g id="primary-award-from 1">
    <animate attributeType="CSS"
      attributeName="opacity"
      values="1; 0"
      dur="500ms"
      begin="2s"
      fill="freeze"
      repeatCount="1" />

    <g id="plane">
      <g id="cabin">
        <animateTransform attributeName="transform"
          type="translate"
          values="0,-0.5; 0,0; 0,-0.5"
          keyTimes="0; 0.5; 1"
          keySplines="0.33, 0.00, 0.67, 1.00; 0.33, 0.00, 0.67, 1.00"
          calcMode="spline"
          dur="1s"
          repeatCount="5" />
        <animateTransform attributeName="transform"
          type="scale"
          values="1 0.999; 1 1; 1 0.998; 1 1; 1 0.999"
          keySplines="0.33, 0.00, 0.67, 1.00; 0.33, 0.00, 0.67, 1.00; 0.33, 0.00, 0.67, 1.00; 0.33, 0.00, 0.67, 1.00"
          calcMode="spline"
          dur="2s"
          additive="sum"
          repeatCount="5" />
        <animateTransform attributeName="transform"
          type="skewX"
          values="-0.4; 0; -0.4"
          keySplines="0.33, 0.00, 0.67, 1.00; 0.33, 0.00, 0.67, 1.00"
          calcMode="spline"
          dur="2s"
          additive="sum"
          repeatCount="5" />

        <path id="stroke"
          d="M175.439 249.28H223.799C226.862 249.278 229.831 248.216 232.2 246.275C234.57 244.334 236.195 241.633 236.799 238.63L240.539 220.31H172.359V246.2C172.362 247.016 172.687 247.798 173.264 248.375C173.841 248.952 174.623 249.277 175.439 249.28Z"
          stroke="white" stroke-width="2" stroke-linecap="round" stroke-linejoin="round" />
        <path id="window-main"
          d="M235.789 241.69H226.569C224.37 241.682 222.264 240.803 220.712 239.246C219.16 237.688 218.289 235.579 218.289 233.38V220.31"
          stroke="white" stroke-width="2" stroke-miterlimit="10" stroke-linecap="round" />
        <path id="window-right"
          d="M204.253 231.88H202.203C201.292 231.885 200.42 232.251 199.777 232.897C199.134 233.544 198.773 234.418 198.773 235.33V238.25C198.773 239.161 199.134 240.036 199.777 240.682C200.42 241.329 201.292 241.695 202.203 241.7H204.253C205.165 241.695 206.037 241.329 206.68 240.682C207.323 240.036 207.683 239.161 207.683 238.25V235.33C207.685 234.878 207.597 234.431 207.425 234.013C207.254 233.595 207.001 233.215 206.683 232.895C206.364 232.574 205.986 232.32 205.569 232.146C205.152 231.971 204.705 231.881 204.253 231.88Z"
          stroke="white" stroke-width="2" stroke-linecap="round" stroke-linejoin="round">
          <set attributeType="CSS" attributeName="opacity" to="0" begin="2s" />
        </path>
        <path id="window-left"
          d="M185.636 231.88H183.586C182.675 231.885 181.802 232.251 181.16 232.897C180.517 233.544 180.156 234.418 180.156 235.33V238.25C180.156 239.161 180.517 240.036 181.16 240.682C181.802 241.329 182.675 241.695 183.586 241.7H185.636C186.548 241.695 187.42 241.329 188.063 240.682C188.706 240.036 189.066 239.161 189.066 238.25V235.33C189.066 234.418 188.706 233.544 188.063 232.897C187.42 232.251 186.548 231.885 185.636 231.88Z"
          stroke="white" stroke-width="2" stroke-linecap="round" stroke-linejoin="round" />
      </g>
      <g id="wing-back">
        <animateTransform
          attributeName='transform'
          type='translate'
          values='0,2.5; 0,-2.5; 0,2.5'
          keySplines='0.47, 0.00, 0.33, 1.00;
            0.33, 0.00, 0.67, 1.00'
          calcMode='spline'
          dur='2s'
          repeatCount='5' />
        <g id="wing-back-top">
          <path id="Vector"
            d="M123.23 173.34H132.39C132.823 173.34 133.252 173.425 133.651 173.591C134.051 173.757 134.414 174.001 134.72 174.307C135.026 174.614 135.268 174.978 135.432 175.378C135.597 175.778 135.681 176.207 135.68 176.64V182.35C135.681 182.783 135.597 183.212 135.432 183.612C135.268 184.012 135.026 184.376 134.72 184.683C134.414 184.989 134.051 185.233 133.651 185.399C133.252 185.565 132.823 185.65 132.39 185.65H115.57C115.22 185.65 114.884 185.511 114.637 185.263C114.389 185.016 114.25 184.68 114.25 184.33V182.33C114.25 179.943 115.198 177.654 116.886 175.966C118.574 174.278 120.863 173.33 123.25 173.33"
            fill="#068E4D" />
          <path id="Vector_2"
            d="M123.23 173.34H132.39C132.823 173.34 133.252 173.425 133.651 173.591C134.051 173.757 134.414 174 134.72 174.307C135.026 174.614 135.268 174.977 135.432 175.378C135.597 175.778 135.681 176.207 135.68 176.64V182.35C135.681 182.783 135.597 183.212 135.432 183.612C135.268 184.012 135.026 184.376 134.72 184.683C134.414 184.989 134.051 185.232 133.651 185.398C133.252 185.564 132.823 185.65 132.39 185.65H115.57C115.22 185.65 114.884 185.511 114.637 185.263C114.389 185.016 114.25 184.68 114.25 184.33V182.33C114.253 179.948 115.199 177.664 116.882 175.979C118.566 174.294 120.848 173.345 123.23 173.34Z"
            stroke="white" stroke-width="2" stroke-linecap="round" stroke-linejoin="round" />
        </g>
        <g id="wing-back-bottom">
          <path id="Vector_3"
            d="M123.23 207.39H132.39C132.823 207.39 133.252 207.305 133.651 207.139C134.051 206.973 134.414 206.729 134.72 206.423C135.026 206.116 135.268 205.752 135.432 205.352C135.597 204.952 135.681 204.523 135.68 204.09V198.38C135.681 197.947 135.597 197.518 135.432 197.118C135.268 196.718 135.026 196.354 134.72 196.047C134.414 195.741 134.051 195.497 133.651 195.331C133.252 195.166 132.823 195.08 132.39 195.08H115.57C115.22 195.08 114.884 195.219 114.637 195.467C114.389 195.714 114.25 196.05 114.25 196.4V198.4C114.25 200.787 115.198 203.076 116.886 204.764C118.574 206.452 120.863 207.4 123.25 207.4"
            fill="#068E4D" />
          <path id="Vector_4"
            d="M123.23 207.39H132.39C132.823 207.39 133.252 207.305 133.651 207.139C134.051 206.973 134.414 206.729 134.72 206.423C135.026 206.116 135.268 205.752 135.432 205.352C135.597 204.952 135.681 204.523 135.68 204.09V198.38C135.681 197.947 135.597 197.518 135.432 197.118C135.268 196.718 135.026 196.354 134.72 196.047C134.414 195.741 134.051 195.497 133.651 195.331C133.252 195.166 132.823 195.08 132.39 195.08H115.57C115.22 195.08 114.884 195.219 114.637 195.467C114.389 195.714 114.25 196.05 114.25 196.4V198.4C114.253 200.782 115.199 203.065 116.882 204.751C118.566 206.436 120.848 207.385 123.23 207.39Z"
            stroke="white" stroke-width="2" stroke-linecap="round" stroke-linejoin="round" />
        </g>
      </g>
      <path id="stroke-2"
        d="M204.998 227.08C248.378 227.08 279.858 211.53 279.858 190.08C279.858 168.63 248.378 153.08 204.998 153.08C177.058 153.08 149.638 166.61 131.538 177.95C129.491 179.238 127.804 181.023 126.634 183.14C125.465 185.257 124.852 187.637 124.852 190.055C124.852 192.474 125.465 194.853 126.634 196.97C127.804 199.087 129.491 200.872 131.538 202.16C149.628 213.49 177.058 227.03 204.998 227.03"
        fill="#068E4D" />
      <path id="stroke-1"
        d="M204.998 227.08C248.378 227.08 279.858 211.53 279.858 190.08C279.858 168.63 248.378 153.08 204.998 153.08C177.058 153.08 149.638 166.61 131.538 177.95C129.491 179.238 127.804 181.023 126.634 183.14C125.465 185.257 124.852 187.637 124.852 190.055C124.852 192.474 125.465 194.853 126.634 196.97C127.804 199.087 129.491 200.872 131.538 202.16C149.628 213.54 177.058 227.08 204.998 227.08Z"
        stroke="white" stroke-width="2" />
      <path id="color-top"
        d="M126.11 190.43C126.028 188.16 126.546 185.908 127.612 183.901C128.678 181.895 130.253 180.204 132.18 179C148.92 168.5 176.76 154.32 204.99 154.32C249.8 154.32 278.63 170.32 278.63 190.07C287 193.5 207.464 189.111 204.99 190.07"
        fill="#36E69A" />
      <path id="color-bottom"
        d="M132.18 195.12C148.92 199.39 176.76 205.12 204.99 205.12C249.13 205.12 277.74 198.8 278.59 190.94C277.73 210.28 249.14 225.8 204.99 225.8C176.76 225.8 148.92 211.61 132.18 201.12C130.44 200.025 128.987 198.53 127.943 196.759C126.9 194.988 126.295 192.992 126.18 190.94C126.44 192.55 128.44 194.12 132.18 195.08"
        fill="#068E4D" />
      <path id="color-middle"
        d="M132.177 186.12C148.917 181.85 177.77 174.5 206 174.5C250.53 174.5 278.248 182.55 278.598 190.5C278.598 190.67 278.598 190.84 278.598 191.01C277.748 198.87 250.15 202 206 202C177.77 202 148.927 199.42 132.188 195.18C128.398 194.18 126.397 192.65 126.188 191.05V190.54C126.317 188.85 128.337 187.18 132.287 186.17"
        fill="#25B774">
        <animate
          attributeName='d'
          values='M132.177 186.12C148.917 181.85 177.77 174.5 206 174.5C250.53 174.5 278.248 182.55 278.598 190.5C278.598 190.67 278.598 190.84 278.598 191.01C277.748 198.87 250.15 202 206 202C177.77 202 148.927 199.42 132.188 195.18C128.398 194.18 126.397 192.65 126.188 191.05V190.54C126.317 188.85 128.337 187.18 132.287 186.17;
            M132.177 186.12C148.917 181.85 177.77 179.5 206 179.5C250.53 179.5 278.248 182.55 278.598 190.5C278.598 190.67 278.598 190.84 278.598 191.01C277.748 198.87 250.15 206 206 206C177.77 206 148.927 199.42 132.188 195.18C128.398 194.18 126.397 192.65 126.188 191.05V190.54C126.317 188.85 128.337 187.18 132.287 186.17;
            M132.177 186.12C148.917 181.85 177.77 174.5 206 174.5C250.53 174.5 278.248 182.55 278.598 190.5C278.598 190.67 278.598 190.84 278.598 191.01C277.748 198.87 250.15 202 206 202C177.77 202 148.927 199.42 132.188 195.18C128.398 194.18 126.397 192.65 126.188 191.05V190.54C126.317 188.85 128.337 187.18 132.287 186.17'
          keySplines='0.33, 0.00, 0.67, 1.00;
            0.33, 0.00, 0.67, 1.00'
          calcMode='spline'
          dur='2s'
          repeatCount="5"
        />
      </path>
      <g id="wing-front">
        <animateTransform
          attributeName='transform'
          type='translate'
          values='0,-2.5; 0,2.5; 0,-2.5'
          keySplines='0.47, 0.00, 0.33, 1.00;
            0.33, 0.00, 0.67, 1.00'
          calcMode='spline'
          dur='2s'
          repeatCount='5' />
        <g id="wing-front-top">
          <path id="Vector_5"
            d="M123.23 173.34H132.39C132.823 173.34 133.252 173.425 133.651 173.591C134.051 173.757 134.414 174.001 134.72 174.307C135.026 174.614 135.268 174.978 135.432 175.378C135.597 175.778 135.681 176.207 135.68 176.64V182.35C135.681 182.783 135.597 183.212 135.432 183.612C135.268 184.012 135.026 184.376 134.72 184.683C134.414 184.989 134.051 185.233 133.651 185.399C133.252 185.565 132.823 185.65 132.39 185.65H115.57C115.22 185.65 114.884 185.511 114.637 185.263C114.389 185.016 114.25 184.68 114.25 184.33V182.33C114.25 179.943 115.198 177.654 116.886 175.966C118.574 174.278 120.863 173.33 123.25 173.33"
            fill="#068E4D" />
          <path id="Vector_6"
            d="M123.23 173.34H132.39C132.823 173.34 133.252 173.425 133.651 173.591C134.051 173.757 134.414 174 134.72 174.307C135.026 174.614 135.268 174.977 135.432 175.378C135.597 175.778 135.681 176.207 135.68 176.64V182.35C135.681 182.783 135.597 183.212 135.432 183.612C135.268 184.012 135.026 184.376 134.72 184.683C134.414 184.989 134.051 185.232 133.651 185.398C133.252 185.564 132.823 185.65 132.39 185.65H115.57C115.22 185.65 114.884 185.511 114.637 185.263C114.389 185.016 114.25 184.68 114.25 184.33V182.33C114.253 179.948 115.199 177.664 116.882 175.979C118.566 174.294 120.848 173.345 123.23 173.34Z"
            stroke="white" stroke-width="2" stroke-linecap="round" stroke-linejoin="round" />
        </g>
        <g id="wing-front-bottom">
          <path id="Vector_7"
            d="M123.23 207.39H132.39C132.823 207.39 133.252 207.305 133.651 207.139C134.051 206.973 134.414 206.729 134.72 206.423C135.026 206.116 135.268 205.752 135.432 205.352C135.597 204.952 135.681 204.523 135.68 204.09V198.38C135.681 197.947 135.597 197.518 135.432 197.118C135.268 196.718 135.026 196.354 134.72 196.047C134.414 195.741 134.051 195.497 133.651 195.331C133.252 195.166 132.823 195.08 132.39 195.08H115.57C115.22 195.08 114.884 195.219 114.637 195.467C114.389 195.714 114.25 196.05 114.25 196.4V198.4C114.25 200.787 115.198 203.076 116.886 204.764C118.574 206.452 120.863 207.4 123.25 207.4"
            fill="#068E4D" />
          <path id="Vector_8"
            d="M123.23 207.39H132.39C132.823 207.39 133.252 207.305 133.651 207.139C134.051 206.973 134.414 206.729 134.72 206.423C135.026 206.116 135.268 205.752 135.432 205.352C135.597 204.952 135.681 204.523 135.68 204.09V198.38C135.681 197.947 135.597 197.518 135.432 197.118C135.268 196.718 135.026 196.354 134.72 196.047C134.414 195.741 134.051 195.497 133.651 195.331C133.252 195.166 132.823 195.08 132.39 195.08H115.57C115.22 195.08 114.884 195.219 114.637 195.467C114.389 195.714 114.25 196.05 114.25 196.4V198.4C114.253 200.782 115.199 203.065 116.882 204.751C118.566 206.436 120.848 207.385 123.23 207.39Z"
            stroke="white" stroke-width="2" stroke-linecap="round" stroke-linejoin="round" />
        </g>
      </g>
    </g>

    <g id="cloud-first">
      <set attributeType="CSS" attributeName="opacity" to="0" />

      <animateTransform attributeName="transform"
        type="translate"
        values="200,0; -40,0;"
        dur="2s"
        begin="0s; 3s; 6s; 9s; 12s"
        repeatCount="1" />

      <animate attributeType="CSS"
        attributeName="opacity"
        values="0; 1; 1; 0"
        keyTimes="0; .1; 0.9; 1"
        keySplines="0.33, 0.00, 0.67, 1.00; 0.33, 0.00, 0.67, 1.00; 0.33, 0.00, 0.67, 1.00"
        dur="2s"
        calcMode="spline"
        begin="0s; 3s; 6s; 9s; 12s"
        repeatCount="1" />

      <path id="cloud-first-top"
        d="M41.7734 97.5401H77.0634C77.0634 94.2515 78.3699 91.0975 80.6953 88.772C83.0208 86.4466 86.1748 85.1401 89.4634 85.1401C92.7521 85.1401 95.9061 86.4466 98.2316 88.772C100.557 91.0975 101.863 94.2515 101.863 97.5401H119.793"
        stroke="white" stroke-width="2" stroke-miterlimit="10" stroke-linecap="round" />
      <path id="cloud-first-line" d="M68.9531 107.8H131.863" stroke="white" stroke-width="2"
        stroke-miterlimit="10" stroke-linecap="round">
        <animateTransform attributeName="transform"
          type="translate"
          values="-15,0; 0,0;"
          begin="0s; 3s; 6s; 9s; 12s"
          repeatCount="1" />
      </path>
    </g>

    <g id="cloud-last">
      <set attributeType="CSS" attributeName="opacity" to="0" />

      <animate attributeType="CSS"
        attributeName="opacity"
        values="0; 1; 1; 0"
        keyTimes="0; .1; 0.9; 1"
        keySplines="0.33, 0.00, 0.67, 1.00; 0.33, 0.00, 0.67, 1.00; 0.33, 0.00, 0.67, 1.00"
        dur="2s"
        begin="1s; 4s; 7s; 10s; 13s"
        calcMode="spline"
        repeatCount="1" />

      <animateTransform attributeName="transform"
        type="translate"
        values="50,0; -190,0;"
        dur="2s"
        begin="1s; 4s; 7s; 10s; 13s"
        repeatCount="1" />

      <g id="cloud-last-top">
        <path id="Vector_10"
          d="M278.748 82.9098H251.388C251.388 79.6211 250.082 76.4671 247.757 74.1416C245.431 71.8162 242.277 70.5098 238.988 70.5098C235.7 70.5098 232.546 71.8162 230.22 74.1416C227.895 76.4671 226.588 79.6211 226.588 82.9098H208.648"
          stroke="white" stroke-width="2" stroke-miterlimit="10" stroke-linecap="round" />
        <path id="Vector_11" d="M287.008 82.9097H309.208" stroke="white" stroke-width="2"
          stroke-miterlimit="10" stroke-linecap="round" />
      </g>
      <path id="cloud-up-right-line" d="M258.961 93.1899H298.741" stroke="white" stroke-width="2"
        stroke-miterlimit="10" stroke-linecap="round">
        <animateTransform attributeName="transform"
          type="translate"
          values="-20,0; 0,0;"
          dur="2s"
          begin="1s; 4s; 7s; 10s; 13s"
          repeatCount="1" />
      </path>
    </g>

    <path id="smoke-up" d="M106.247 179.49H84.0469" stroke="white" stroke-width="2"
      stroke-miterlimit="10" stroke-linecap="round">
      <animate
        attributeName='d'
        values="
          M106.247 179.49H84.0469;
          M106.247 179.49H89.0469;
          M106.247 179.49H84.0469
        "
        keySplines='0.33, 0.00, 0.67, 1.00;
            0.33, 0.00, 0.67, 1.00'
        calcMode='spline'
        dur='200ms'
        begin="150ms"
        repeatCount="50"
      />
    </path>
    <path id="smoke-bottom" d="M106.247 201.23H84.0469" stroke="white" stroke-width="2"
      stroke-miterlimit="10" stroke-linecap="round">
      <animate
        attributeName='d'
        values="
          M106.247 201.23H84.0469;
          M106.247 201.23H89.0469;
          M106.247 201.23H84.0469
        "
        keySplines='0.33, 0.00, 0.67, 1.00;
            0.33, 0.00, 0.67, 1.00'
        calcMode='spline'
        dur='200ms'
        begin="100ms"
        repeatCount="50"
      />
    </path>
    <path id="smoke-middle" d="M106.253 190.98H68.7734" stroke="white" stroke-width="2"
      stroke-miterlimit="10" stroke-linecap="round">
      <animate
        attributeName='d'
        values="
          M106.253 190.98 L68.7734 190.98;
          M106.253 190.98 L74 191;
          M106.253 190.98 L68.7734 190.98
        "
        keySplines='0.33, 0.00, 0.67, 1.00;
            0.33, 0.00, 0.67, 1.00'
        calcMode='spline'
        dur='200ms'
        repeatCount="50"
      />
    </path>
    <g id="mountain">
      <path id="Vector_12"
        d="M289.941 327.88H244.881L212.801 296.58C212.46 296.292 212.028 296.133 211.581 296.133C211.135 296.133 210.702 296.292 210.361 296.58L200.161 306.81C199.849 307.08 199.449 307.229 199.036 307.229C198.623 307.229 198.224 307.08 197.911 306.81L178.911 286.64C178.478 286.273 177.929 286.072 177.361 286.072C176.794 286.072 176.245 286.273 175.811 286.64L149.391 312.28C149.08 312.552 148.68 312.702 148.266 312.702C147.853 312.702 147.453 312.552 147.141 312.28L144.511 309.36C144.196 309.071 143.784 308.911 143.356 308.911C142.929 308.911 142.517 309.071 142.201 309.36L124.631 329H80.7812"
        stroke="white" stroke-width="2" stroke-miterlimit="10" stroke-linecap="round">
        <animate
          attributeName='d'
          values='M289.941 327.88H244.881L212.801 296.58C212.46 296.292 212.028 296.133 211.581 296.133C211.135 296.133 210.702 296.292 210.361 296.58L200.161 306.81C199.849 307.08 199.449 307.229 199.036 307.229C198.623 307.229 198.224 307.08 197.911 306.81L178.911 286.64C178.478 286.273 177.929 286.072 177.361 286.072C176.794 286.072 176.245 286.273 175.811 286.64L149.391 312.28C149.08 312.552 148.68 312.702 148.266 312.702C147.853 312.702 147.453 312.552 147.141 312.28L144.511 309.36C144.196 309.071 143.784 308.911 143.356 308.911C142.929 308.911 142.517 309.071 142.201 309.36L124.631 329H80.7812;
          M289.941 329.026H244.881L212.801 329.755C212.46 329.762 212.028 329.766 211.581 329.766C211.135 329.766 210.702 329.762 210.361 329.755L200.161 329.517C199.849 329.511 199.449 329.507 199.036 329.507C198.623 329.507 198.224 329.511 197.911 329.517L178.911 329.987C178.478 329.995 177.929 330 177.361 330C176.794 330 176.245 329.995 175.811 329.987L149.391 329.389C149.08 329.383 148.68 329.38 148.266 329.38C147.853 329.38 147.453 329.383 147.141 329.389L144.511 329.457C144.196 329.464 143.784 329.468 143.356 329.468C142.929 329.468 142.517 329.464 142.201 329.457L124.631 329H80.7812'
          dur='150ms'
          keySplines='0.0 0.0 0.58 1.0'
          calcMode='spline'
          repeatCount='1'
          begin='2s'
          fill='freeze'
        />
      </path>
    </g>
  </g>

  <g id="primary-award-to" clip-path="url(#clip0_1635_14280)">
    <g id="ski">
      <set attributeType="CSS" attributeName="opacity" to="0" />

      <animate attributeType="CSS"
        attributeName="opacity"
        values="0; 1;"
        dur="370ms"
        begin="2.25s"
        fill="freeze"
        repeatCount="1" />

      <animateTransform attributeName="transform"
        type="translate"
        values="-490,0; 0,0"
        keySplines="0.33, 0.00, 0.00, 1.00"
        calcMode="spline"
        dur="300ms"
        begin="2.27s"
        repeatCount="1" />

      <path id="Vector"
        d="M91.1393 327.79C90.5624 327.739 90.0289 327.463 89.6544 327.021C89.28 326.579 89.0949 326.007 89.1393 325.43L102.799 132.26C103.899 116.77 97.9993 110.34 94.0493 107.79C93.8257 107.639 93.6525 107.424 93.5519 107.174C93.4513 106.924 93.4281 106.649 93.4851 106.385C93.5421 106.122 93.6769 105.881 93.8719 105.695C94.0669 105.509 94.3133 105.385 94.5793 105.34C102.999 104 122.179 104 119.999 134.19L106.429 326.67C106.378 327.245 106.103 327.777 105.664 328.151C105.224 328.525 104.655 328.711 104.079 328.67L91.1393 327.79Z"
        fill="white" />
      <path id="Vector_2"
        d="M124.5 328.17C124.211 328.166 123.926 328.105 123.66 327.991C123.395 327.877 123.154 327.711 122.953 327.504C122.751 327.297 122.593 327.053 122.486 326.784C122.379 326.516 122.326 326.229 122.33 325.94L124.57 132.31C124.76 116.78 118.5 110.7 114.41 108.4C114.18 108.261 113.997 108.057 113.884 107.814C113.771 107.57 113.732 107.299 113.774 107.034C113.816 106.769 113.936 106.522 114.119 106.325C114.301 106.129 114.539 105.991 114.8 105.93C123.16 104.03 142.29 102.93 141.95 133.21L139.7 326.14C139.697 326.429 139.638 326.714 139.525 326.98C139.412 327.246 139.248 327.487 139.041 327.69C138.835 327.892 138.591 328.052 138.323 328.16C138.055 328.268 137.769 328.323 137.48 328.32L124.5 328.17Z"
        fill="white" />
    </g>

    <g id="window">
      <path id="Vector_3"
        d="M204.979 242H202.023C201.221 241.997 200.452 241.742 199.886 241.291C199.319 240.84 199.001 240.229 199 239.592V234.408C199.001 233.771 199.319 233.16 199.886 232.709C200.452 232.258 201.221 232.003 202.023 232H204.979C205.781 232.003 206.549 232.258 207.115 232.709C207.681 233.161 207.999 233.771 208 234.408V239.589C208 240.226 207.682 240.838 207.116 241.289C206.549 241.741 205.781 241.996 204.979 242Z"
        stroke="white" stroke-width="2">
        <set attributeType="CSS" attributeName="opacity" to="0" />

        <animate attributeType="CSS"
          attributeName="opacity"
          values="0; 1;"
          dur="500ms"
          begin="2s"
          fill="freeze"
          repeatCount="1" />

        <animate
          attributeName='d'
          values='M204.979 242H202.023C201.221 241.997 200.452 241.742 199.886 241.291C199.319 240.84 199.001 240.229 199 239.592V234.408C199.001 233.771 199.319 233.16 199.886 232.709C200.452 232.258 201.221 232.003 202.023 232H204.979C205.781 232.003 206.549 232.258 207.115 232.709C207.681 233.161 207.999 233.771 208 234.408V239.589C208 240.226 207.682 240.838 207.116 241.289C206.549 241.741 205.781 241.996 204.979 242Z;
          M275.002 225.43H257.872C253.221 225.409 248.768 223.548 245.485 220.254C242.202 216.96 240.357 212.5 240.352 207.85V170C240.357 165.349 242.202 160.89 245.485 157.596C248.768 154.302 253.221 152.441 257.872 152.42H275.002C279.65 152.444 284.101 154.306 287.381 157.599C290.662 160.893 292.506 165.351 292.512 170V207.83C292.509 212.481 290.666 216.943 287.386 220.24C284.105 223.538 279.653 225.404 275.002 225.43Z'
          dur='1s'
          keySplines='0.33, 0.00, 0.00, 1.00'
          calcMode='spline'
          repeatCount='1'
          begin="2s"
          fill='freeze'
        />
      </path>
    </g>

    <g id="Clip path group">
      <mask id="mask0_1635_14280" style="mask-type:luminance" maskUnits="userSpaceOnUse" x="240"
        y="152" width="53" height="74">
        <g id="window_2">
          <path id="Vector_4"
            d="M275.002 225.43H257.872C253.221 225.409 248.768 223.548 245.485 220.254C242.202 216.96 240.357 212.5 240.352 207.85V170C240.357 165.349 242.202 160.89 245.485 157.596C248.768 154.302 253.221 152.441 257.872 152.42H275.002C279.65 152.444 284.101 154.306 287.381 157.599C290.662 160.893 292.506 165.351 292.512 170V207.83C292.509 212.481 290.666 216.943 287.386 220.24C284.105 223.538 279.653 225.404 275.002 225.43Z"
            fill="white" />
        </g>
      </mask>
      <g mask="url(#mask0_1635_14280)">
        <g id="cloudes">
          <g transform="translate(290 170) scale(.5)">
            <set attributeType="CSS" attributeName="opacity" to="0" />

            <animate attributeType="CSS"
              attributeName="opacity"
              values="0; 1;"
              keySplines="0.33, 0.00, 0.67, 1.00"
              dur="450ms"
              begin="2.5s"
              calcMode="spline"
              fill="freeze"
              repeatCount="1" />

            <animateTransform attributeName="transform"
              id="cloudInWindow"
              type="translate"
              values="0,0; -360,0;"
              dur="3.15s"
              begin="2.2s; cloudInWindow.end + 1s"
              additive="sum"
              repeatCount="100" />

            <line x1="28.18" y1="38.34" x2="91.09" y2="38.34" fill="none" stroke="#fff"
              stroke-linecap="round" stroke-miterlimit="10" stroke-width="2">
              <animateTransform attributeName="transform"
                type="translate"
                values="-15,0; 0,0;"
                dur="3.15s"
                begin="2.2s; cloudInWindow.end + 1s"
                repeatCount="indefinite" />
            </line>
            <path d="M41.77,97.54H77.06a12.4,12.4,0,1,1,24.8,0h17.93"
              transform="translate(-40.77 -69.46)" fill="none" stroke="#fff" stroke-linecap="round"
              stroke-miterlimit="10" stroke-width="2" />
            <line x1="218.19" y1="23.72" x2="257.97" y2="23.72" fill="none" stroke="#fff"
              stroke-linecap="round" stroke-miterlimit="10" stroke-width="2">
              <animateTransform attributeName="transform"
                type="translate"
                values="-15,0; 0,0;"
                dur="3.15s"
                begin="2.2s; cloudInWindow.end + 1s"
                repeatCount="indefinite" />
            </line>
            <path d="M278.75,82.91H251.39a12.4,12.4,0,1,0-24.8,0H208.65"
              transform="translate(-40.77 -69.46)" fill="none" stroke="#fff" stroke-linecap="round"
              stroke-miterlimit="10" stroke-width="2" />
            <line x1="246.24" y1="13.45" x2="268.43" y2="13.45" fill="none" stroke="#fff"
              stroke-linecap="round" stroke-miterlimit="10" stroke-width="2" />
          </g>
        </g>
      </g>
    </g>

    <g id="seat">
      <set attributeType="CSS" attributeName="opacity" to="0" />

      <animate attributeType="CSS"
        attributeName="opacity"
        values="0; 1;"
        dur="500ms"
        begin="2.15s"
        fill="freeze"
        repeatCount="1" />

      <animateTransform attributeName="transform"
        type="translate"
        values="-120,0; 0,0"
        keySplines="0.33, 0.00, 0.00, 1.00"
        calcMode="spline"
        dur="500ms"
        begin="2.15s"
        repeatCount="1" />

      <animateTransform attributeName="transform"
        type="skewX"
        values="8; 0"
        keySplines="0.33, 0.00, 0.67, 1.00"
        calcMode="spline"
        dur="500ms"
        begin="2.15s"
        additive="sum"
        repeatCount="1" />


      <path id="Vector_5"
        d="M257.506 259.82H196.766V245.63H251.856C254.485 245.636 257.004 246.685 258.861 248.546C260.717
    250.408 261.758 252.931 261.756 255.56C261.753 256.687 261.304 257.766 260.508 258.563C259.711
    259.359 258.632 259.808 257.506 259.81"
        fill="#A67EE5" />
      <path id="Vector_6"
        d="M257.506 259.82H196.766V245.63H251.856C254.485 245.636 257.004 246.685 258.861 248.546C260.717
    250.408 261.758 252.931 261.756 255.56C261.756 256.688 261.308 257.771 260.511 258.569C259.715
    259.368 258.634 259.818 257.506 259.82Z"
        stroke="white" stroke-width="2" stroke-miterlimit="10" />
      <path id="Vector_7" d="M185.475 328.31H171.505L165.195 286.72H179.165L185.475 328.31Z"
        fill="#A67EE5" />
      <path id="Vector_8" d="M185.475 328.31H171.505L165.195 286.72H179.165L185.475 328.31Z"
        stroke="white" stroke-width="2" stroke-miterlimit="10" />
      <path id="Vector_9" d="M235.036 328.31H221.066L214.766 286.72H228.726L235.036 328.31Z"
        fill="#A67EE5" />
      <path id="Vector_10" d="M235.036 328.31H221.066L214.766 286.72H228.726L235.036 328.31Z"
        stroke="white" stroke-width="2" stroke-miterlimit="10" />
      <path id="Vector_11"
        d="M281.334 272.45H225.444C224.104 272.45 222.808 271.969 221.792 271.093C220.777 270.217 220.111
    269.006 219.914 267.68L209.054 195.44C211.94 193.051 213.993 189.808 214.919 186.178C215.845
    182.548 215.596 178.718 214.208 175.238C212.82 171.758 210.364 168.808 207.194 166.812C204.024
    164.817 200.302 163.877 196.564 164.13H141.484L141.164 267L156.934 290.35L204.124 298.74C205.476
    299.235 206.904 299.489 208.344 299.49H281.344C284.932 299.49 288.374 298.065 290.911
    295.527C293.449 292.99 294.874 289.549 294.874 285.96C294.874 282.372 293.449 278.93 290.911
    276.393C288.374 273.856 284.932 272.43 281.344 272.43"
        fill="#A67EE5" />
      <path id="Vector_12"
        d="M281.334 272.45H225.444C224.104 272.45 222.808 271.969 221.792 271.093C220.777 270.217 220.111
    269.006 219.914 267.68L209.054 195.44C211.94 193.051 213.993 189.808 214.919 186.178C215.845
    182.548 215.596 178.718 214.208 175.238C212.82 171.758 210.364 168.808 207.194 166.812C204.024
    164.817 200.302 163.877 196.564 164.13H141.484L141.164 267L156.934 290.35L204.124 298.74C205.476
    299.235 206.904 299.489 208.344 299.49H281.344C284.84 299.354 288.147 297.87 290.572
    295.348C292.997 292.827 294.35 289.464 294.349 285.965C294.348 282.467 292.991 279.105 290.565
    276.585C288.138 274.065 284.83 272.583 281.334 272.45Z"
        stroke="white" stroke-width="2" stroke-miterlimit="10" />
      <path id="Vector_13"
        d="M162.423 267.69L151.563 195.45C153.862 193.547 155.643 191.095 156.741 188.319C157.839 185.544
    158.217 182.536 157.842 179.576C157.466 176.615 156.348 173.797 154.592 171.384C152.836 168.971
    150.498 167.041 147.797 165.773C145.095 164.505 142.117 163.94 139.138 164.132C136.16 164.323
    133.278 165.263 130.761 166.866C128.243 168.469 126.172 170.682 124.738 173.3C123.305 175.918
    122.557 178.856 122.563 181.84C122.565 183.619 122.831 185.389 123.353 187.09L138.653
    289C139.088 291.928 140.561 294.602 142.801 296.536C145.042 298.47 147.902 299.536 150.863
    299.54H223.863C227.386 299.444 230.733 297.977 233.191 295.451C235.649 292.925 237.025 289.54
    237.025 286.015C237.025 282.49 235.649 279.105 233.191 276.579C230.733 274.053 227.386 272.586
    223.863 272.49H167.953C166.612 272.484 165.318 271.998 164.304 271.122C163.29 270.245 162.623
    269.035 162.423 267.71"
        fill="#A67EE5" />
      <path id="Vector_14"
        d="M162.423 267.69L151.563 195.45C153.862 193.547 155.643 191.095 156.741 188.319C157.839 185.544
    158.217 182.536 157.842 179.576C157.466 176.615 156.348 173.797 154.592 171.384C152.836 168.971
    150.498 167.041 147.797 165.773C145.095 164.505 142.117 163.94 139.138 164.132C136.16 164.323
    133.278 165.263 130.761 166.866C128.243 168.469 126.172 170.682 124.738 173.3C123.305 175.918
    122.557 178.856 122.563 181.84C122.565 183.619 122.831 185.389 123.353 187.09L138.653
    289C139.088 291.928 140.561 294.602 142.801 296.536C145.042 298.47 147.902 299.536 150.863
    299.54H223.863C227.386 299.444 230.733 297.977 233.191 295.451C235.649 292.925 237.025 289.54
    237.025 286.015C237.025 282.49 235.649 279.105 233.191 276.579C230.733 274.053 227.386 272.586
    223.863 272.49H167.953C166.609 272.483 165.313 271.995 164.298 271.114C163.284 270.234 162.619
    269.019 162.423 267.69Z"
        stroke="white" stroke-width="2" stroke-miterlimit="10" />
      <path id="Vector_15"
        d="M206.263 259.82H134.263L132.133 245.63H200.603C203.232 245.636 205.752 246.685 207.608
    248.546C209.464 250.408 210.505 252.931 210.503 255.56C210.5 256.687 210.052 257.766 209.255
    258.563C208.459 259.359 207.379 259.808 206.253 259.81"
        fill="#A67EE5" />
      <path id="Vector_16"
        d="M206.263 259.82H134.263L132.133 245.63H200.603C203.232 245.636 205.752 246.685 207.608
    248.546C209.464 250.408 210.505 252.931 210.503 255.56C210.503 256.687 210.057 257.767 209.262
    258.566C208.468 259.364 207.389 259.815 206.263 259.82Z"
        stroke="white" stroke-width="2" stroke-miterlimit="10" />
      <path id="Vector_17" d="M151.57 195.44H209.05" stroke="white" stroke-width="2"
        stroke-miterlimit="10" stroke-linecap="round" />
    </g>

    <g id="plant">
      <set attributeType="CSS" attributeName="opacity" to="0" />

      <animate attributeType="CSS"
        attributeName="opacity"
        values="0; 1;"
        dur="370ms"
        begin="2.25s"
        fill="freeze"
        repeatCount="1" />

      <animateTransform attributeName="transform"
        type="translate"
        values="-120,0; 0,0"
        keySplines="0.33, 0.00, 0.00, 1.00"
        calcMode="spline"
        dur="370ms"
        begin="2.20s"
        repeatCount="1" />

      <animateTransform attributeName="transform"
        type="rotate"
        values="0 150.57 328; 5 150.57 328; -2.5 150.57 328; 1.2 150.57 328;"
        keySplines="0.33, 0.00, 0.67, 1.00; 0.33, 0.00, 0.67, 1.00; 0.33, 0.00, 0.67, 1.00"
        calcMode="spline"
        dur="1200ms"
        begin="2.20s"
        fill="freeze"
        additive="sum"
        repeatCount="1" />


      <path id="Vector_18"
        d="M79.1772 194C85.4233 202.316 90.6568 211.346 94.7672 220.9C87.6032 213.464 80.8975 205.6 74.6872 197.35C68.4855 189.072 62.7853 180.43 57.6172 171.47C65.6706 178.1 72.908 185.663 79.1772 194Z"
        fill="#36E69A" />
      <path id="Vector_19"
        d="M80.9366 214.39C89.3348 220.276 96.9904 227.156 103.737 234.88C94.8043 230.187 86.1741 224.94 77.8966 219.17C69.7014 213.44 61.8789 207.194 54.4766 200.47C63.8431 203.987 72.7323 208.664 80.9366 214.39Z"
        fill="#36E69A" />
      <path id="Vector_20"
        d="M93.6597 205.48C96.4271 215.47 99.7932 225.285 103.74 234.87C103.499 224.551 101.988 214.3 99.2397 204.35C96.3862 194.099 92.3384 184.217 87.1797 174.91C88.7223 185.221 90.8829 195.429 93.6497 205.48"
        fill="#36E69A" />
      <path id="Vector_21"
        d="M107.317 213.52C107.375 223.776 108.063 234.019 109.377 244.19C111.896 234.373 113.159 224.276 113.137 214.14C113.073 203.564 111.73 193.034 109.137 182.78C107.851 192.976 107.227 203.244 107.267 213.52"
        fill="#25B774" />
      <path id="Vector_22"
        d="M83.0759 229.56C92.4101 233.336 101.241 238.253 109.366 244.2C99.7881 241.753 90.3812 238.68 81.2059 235C72.1534 231.339 63.3453 227.1 54.8359 222.31C64.5268 223.516 74.0217 225.966 83.0859 229.6"
        fill="#25B774" />
      <path id="Vector_23"
        d="M88.0541 243.83C97.6746 246.378 106.935 250.131 115.614 255C105.902 253.803 96.2859 251.932 86.8341 249.4C77.4998 246.894 68.3401 243.777 59.4141 240.07C69.0836 240.094 78.7109 241.347 88.0641 243.8"
        fill="#25B774" />
      <path id="Vector_24"
        d="M118.709 224.79C117.032 234.797 115.997 244.901 115.609 255.04C119.756 245.942 122.72 236.351 124.429 226.5C126.179 216.201 126.656 205.726 125.849 195.31C122.771 204.955 120.382 214.807 118.699 224.79"
        fill="#25B774" />
      <path id="Vector_25"
        d="M98.8584 262C108.365 264.957 117.461 269.103 125.928 274.34C116.273 272.737 106.741 270.468 97.3984 267.55C88.1795 264.661 79.1601 261.17 70.3984 257.1C80.0544 257.521 89.6177 259.168 98.8584 262Z"
        fill="#068E4D" />
      <path id="Vector_26"
        d="M130.27 244.29C128.179 254.22 126.729 264.274 125.93 274.39C130.454 265.47 133.814 256.006 135.93 246.23C138.104 236.014 139.014 225.569 138.64 215.13C135.168 224.641 132.374 234.385 130.28 244.29"
        fill="#068E4D" />
      <path id="Vector_27"
        d="M108.896 280.69C118.275 284.044 127.192 288.57 135.436 294.16C125.854 292.144 116.422 289.471 107.206 286.16C98.1135 282.887 89.2446 279.022 80.6562 274.59C90.2896 275.409 99.7793 277.453 108.896 280.67"
        fill="#068E4D" />
      <path id="Vector_28"
        d="M140.994 264.26C138.493 274.097 136.629 284.084 135.414 294.16C140.296 285.429 144.043 276.111 146.564 266.43C149.167 256.301 150.51 245.889 150.564 235.43C146.696 244.802 143.498 254.436 140.994 264.26Z"
        fill="#068E4D" />
      <path id="Vector_29" d="M92.6172 217.67C115.832 252.09 134.917 289.121 149.477 328"
        stroke="#36E69A" stroke-width="2" stroke-linecap="round" stroke-linejoin="round" />
    </g>

    <g id="Group">
      <set attributeType="CSS" attributeName="opacity" to="0" />

      <animate attributeType="CSS"
        attributeName="opacity"
        values="0; 1;"
        dur="370ms"
        begin="2.25s"
        fill="freeze"
        repeatCount="1" />

      <path id="Vector_30" d="M72.0312 329H295.521" stroke="white" stroke-width="2"
        stroke-miterlimit="10" stroke-linecap="round" />
    </g>
  </g>
</svg>