<svg width="350" height="330" viewBox="0 0 350 330" fill="none" xmlns="http://www.w3.org/2000/svg">
  <g id="primary-award-from 1">
    <rect width="350" height="330" fill="#6D6D6D" />
    <g id="plane">
      <!-- <animateTransform attributeName="transform"
        type="scale"
        values="1 1; 1 0.98; 1 1"
        keyTimes="0; 0.5; 1"
        keySplines=".5,.38,.39,.93; .5,.38,.39,.93"
        calcMode="spline"
        dur="2s"
        additive="sum"
        repeatCount="indefinite" />
      <animateTransform attributeName="transform"
        type="skewX"
        values="0; 0.2; 0"
        keyTimes="0; 0.5; 1"
        keySplines=".5,.38,.39,.93; .5,.38,.39,.93"
        calcMode="spline"
        dur="2s"
        additive="sum"
        repeatCount="indefinite" /> -->
      <g id="cabin">
        <path id="stroke"
          d="M175.439 249.28H223.799C226.862 249.278 229.831 248.216 232.2 246.275C234.57 244.334 236.195 241.633 236.799 238.63L240.539 220.31H172.359V246.2C172.362 247.016 172.687 247.798 173.264 248.375C173.841 248.952 174.623 249.277 175.439 249.28Z"
          stroke="white" stroke-width="2" stroke-linecap="round" stroke-linejoin="round" />
        <path id="window-main"
          d="M235.789 241.69H226.569C224.37 241.682 222.264 240.803 220.712 239.246C219.16 237.688 218.289 235.579 218.289 233.38V220.31"
          stroke="white" stroke-width="2" stroke-miterlimit="10" stroke-linecap="round" />
        <path id="window-right"
          d="M204.253 231.88H202.203C201.292 231.885 200.42 232.251 199.777 232.897C199.134 233.544 198.773 234.418 198.773 235.33V238.25C198.773 239.161 199.134 240.036 199.777 240.682C200.42 241.329 201.292 241.695 202.203 241.7H204.253C205.165 241.695 206.037 241.329 206.68 240.682C207.323 240.036 207.683 239.161 207.683 238.25V235.33C207.685 234.878 207.597 234.431 207.425 234.013C207.254 233.595 207.001 233.215 206.683 232.895C206.364 232.574 205.986 232.32 205.569 232.146C205.152 231.971 204.705 231.881 204.253 231.88Z"
          stroke="white" stroke-width="2" stroke-linecap="round" stroke-linejoin="round" />
        <path id="window-left"
          d="M185.636 231.88H183.586C182.675 231.885 181.802 232.251 181.16 232.897C180.517 233.544 180.156 234.418 180.156 235.33V238.25C180.156 239.161 180.517 240.036 181.16 240.682C181.802 241.329 182.675 241.695 183.586 241.7H185.636C186.548 241.695 187.42 241.329 188.063 240.682C188.706 240.036 189.066 239.161 189.066 238.25V235.33C189.066 234.418 188.706 233.544 188.063 232.897C187.42 232.251 186.548 231.885 185.636 231.88Z"
          stroke="white" stroke-width="2" stroke-linecap="round" stroke-linejoin="round" />
      </g>
      <path id="stroke-2"
        d="M204.998 227.08C248.378 227.08 279.858 211.53 279.858 190.08C279.858 168.63 248.378 153.08 204.998 153.08C177.058 153.08 149.638 166.61 131.538 177.95C129.491 179.238 127.804 181.023 126.634 183.14C125.465 185.257 124.852 187.637 124.852 190.055C124.852 192.474 125.465 194.853 126.634 196.97C127.804 199.087 129.491 200.872 131.538 202.16C149.628 213.49 177.058 227.03 204.998 227.03"
        fill="#068E4D" />
      <path id="stroke-1"
        d="M204.998 227.08C248.378 227.08 279.858 211.53 279.858 190.08C279.858 168.63 248.378 153.08 204.998 153.08C177.058 153.08 149.638 166.61 131.538 177.95C129.491 179.238 127.804 181.023 126.634 183.14C125.465 185.257 124.852 187.637 124.852 190.055C124.852 192.474 125.465 194.853 126.634 196.97C127.804 199.087 129.491 200.872 131.538 202.16C149.628 213.54 177.058 227.08 204.998 227.08Z"
        stroke="white" stroke-width="2" />
      <path id="color-top"
        d="M205 176.09C176.77 176.09 148.93 181.85 132.19 186.09C128.24 187.09 126.19 188.75 126.11 190.43C126.028 188.16 126.546 185.908 127.612 183.901C128.678 181.895 130.253 180.204 132.18 179C148.92 168.5 176.76 154.32 204.99 154.32C249.8 154.32 278.63 170.32 278.63 190.07C278.63 190.19 278.63 190.31 278.63 190.44C278.26 182.49 249.53 176.07 205 176.07"
        fill="#36E69A" />
      <path id="color-bottom"
        d="M132.18 195.12C148.92 199.39 176.76 205.12 204.99 205.12C249.13 205.12 277.74 198.8 278.59 190.94C277.73 210.28 249.14 225.8 204.99 225.8C176.76 225.8 148.92 211.61 132.18 201.12C130.44 200.025 128.987 198.53 127.943 196.759C126.9 194.988 126.295 192.992 126.18 190.94C126.44 192.55 128.44 194.12 132.18 195.08"
        fill="#068E4D" />
      <path id="color-middle"
        d="M132.177 186.12C148.917 181.85 176.758 176.12 204.988 176.12C249.518 176.12 278.248 182.55 278.598 190.5C278.598 190.67 278.598 190.84 278.598 191.01C277.748 198.87 249.147 205.18 204.997 205.18C176.767 205.18 148.927 199.42 132.188 195.18C128.398 194.18 126.397 192.65 126.188 191.05V190.54C126.317 188.85 128.337 187.18 132.287 186.17"
        fill="#25B774">
        <animate
          attributeName='d'
          values='M132.177 186.12C148.917 181.85 176.767 175 204.997 175C249.527 175 278.248 182.55 278.598 190.5C278.598 190.67 278.598 190.84 278.598 191.01C277.748 198.87 249.147 203.5 204.997 203.5C176.767 203.5 148.927 199.42 132.188 195.18C128.398 194.18 126.397 192.65 126.188 191.05V190.54C126.317 188.85 128.337 187.18 132.287 186.17;

      M132.177 186.12C148.917 181.85 176.758 176.12 204.988 176.12C249.518 176.12 278.248 182.55 278.598 190.5C278.598 190.67 278.598 190.84 278.598 191.01C277.748 198.87 249.147 205.18 204.997 205.18C176.767 205.18 148.927 199.42 132.188 195.18C128.398 194.18 126.397 192.65 126.188 191.05V190.54C126.317 188.85 128.337 187.18 132.287 186.17;

      M132.177 186.12C148.917 181.85 176.767 175 204.997 175C249.527 175 278.248 182.55 278.598 190.5C278.598 190.67 278.598 190.84 278.598 191.01C277.748 198.87 249.147 203.5 204.997 203.5C176.767 203.5 148.927 199.42 132.188 195.18C128.398 194.18 126.397 192.65 126.188 191.05V190.54C126.317 188.85 128.337 187.18 132.287 186.17'
          keySplines='.5,.38,.39,.93;
            .5,.38,.39,.93'
          calcMode='spline'
          dur='2s'
          repeatCount="indefinite"
          restart='whenNotActive'
        />
      </path>
      <g id="wing-back">
        <animateTransform
          attributeName='transform'
          type='translate'
          values='0,2; 0,-2; 0,2'
          keySplines='.5,.38,.39,.93;
            .5,.38,.39,.93'
          calcMode='spline'
          dur='2s'
          repeatCount='indefinite' />
        <g id="wing-back-top">
          <path id="Vector"
            d="M123.23 173.34H132.39C132.823 173.34 133.252 173.425 133.651 173.591C134.051 173.757 134.414 174.001 134.72 174.307C135.026 174.614 135.268 174.978 135.432 175.378C135.597 175.778 135.681 176.207 135.68 176.64V182.35C135.681 182.783 135.597 183.212 135.432 183.612C135.268 184.012 135.026 184.376 134.72 184.683C134.414 184.989 134.051 185.233 133.651 185.399C133.252 185.565 132.823 185.65 132.39 185.65H115.57C115.22 185.65 114.884 185.511 114.637 185.263C114.389 185.016 114.25 184.68 114.25 184.33V182.33C114.25 179.943 115.198 177.654 116.886 175.966C118.574 174.278 120.863 173.33 123.25 173.33"
            fill="#068E4D" />
          <path id="Vector_2"
            d="M123.23 173.34H132.39C132.823 173.34 133.252 173.425 133.651 173.591C134.051 173.757 134.414 174 134.72 174.307C135.026 174.614 135.268 174.977 135.432 175.378C135.597 175.778 135.681 176.207 135.68 176.64V182.35C135.681 182.783 135.597 183.212 135.432 183.612C135.268 184.012 135.026 184.376 134.72 184.683C134.414 184.989 134.051 185.232 133.651 185.398C133.252 185.564 132.823 185.65 132.39 185.65H115.57C115.22 185.65 114.884 185.511 114.637 185.263C114.389 185.016 114.25 184.68 114.25 184.33V182.33C114.253 179.948 115.199 177.664 116.882 175.979C118.566 174.294 120.848 173.345 123.23 173.34Z"
            stroke="white" stroke-width="2" stroke-linecap="round" stroke-linejoin="round" />
        </g>
        <g id="wing-back-bottom">
          <path id="Vector_3"
            d="M123.23 207.39H132.39C132.823 207.39 133.252 207.305 133.651 207.139C134.051 206.973 134.414 206.729 134.72 206.423C135.026 206.116 135.268 205.752 135.432 205.352C135.597 204.952 135.681 204.523 135.68 204.09V198.38C135.681 197.947 135.597 197.518 135.432 197.118C135.268 196.718 135.026 196.354 134.72 196.047C134.414 195.741 134.051 195.497 133.651 195.331C133.252 195.166 132.823 195.08 132.39 195.08H115.57C115.22 195.08 114.884 195.219 114.637 195.467C114.389 195.714 114.25 196.05 114.25 196.4V198.4C114.25 200.787 115.198 203.076 116.886 204.764C118.574 206.452 120.863 207.4 123.25 207.4"
            fill="#068E4D" />
          <path id="Vector_4"
            d="M123.23 207.39H132.39C132.823 207.39 133.252 207.305 133.651 207.139C134.051 206.973 134.414 206.729 134.72 206.423C135.026 206.116 135.268 205.752 135.432 205.352C135.597 204.952 135.681 204.523 135.68 204.09V198.38C135.681 197.947 135.597 197.518 135.432 197.118C135.268 196.718 135.026 196.354 134.72 196.047C134.414 195.741 134.051 195.497 133.651 195.331C133.252 195.166 132.823 195.08 132.39 195.08H115.57C115.22 195.08 114.884 195.219 114.637 195.467C114.389 195.714 114.25 196.05 114.25 196.4V198.4C114.253 200.782 115.199 203.065 116.882 204.751C118.566 206.436 120.848 207.385 123.23 207.39Z"
            stroke="white" stroke-width="2" stroke-linecap="round" stroke-linejoin="round" />
        </g>
      </g>
      <g id="wing-front">
        <animateTransform
          attributeName='transform'
          type='translate'
          values='0,-2; 0,2; 0,-2'
          keySplines='.5,.38,.39,.93;
            .5,.38,.39,.93'
          calcMode='spline'
          dur='2s'
          repeatCount='indefinite' />
        <g id="wing-front-top">
          <path id="Vector_5"
            d="M123.23 173.34H132.39C132.823 173.34 133.252 173.425 133.651 173.591C134.051 173.757 134.414 174.001 134.72 174.307C135.026 174.614 135.268 174.978 135.432 175.378C135.597 175.778 135.681 176.207 135.68 176.64V182.35C135.681 182.783 135.597 183.212 135.432 183.612C135.268 184.012 135.026 184.376 134.72 184.683C134.414 184.989 134.051 185.233 133.651 185.399C133.252 185.565 132.823 185.65 132.39 185.65H115.57C115.22 185.65 114.884 185.511 114.637 185.263C114.389 185.016 114.25 184.68 114.25 184.33V182.33C114.25 179.943 115.198 177.654 116.886 175.966C118.574 174.278 120.863 173.33 123.25 173.33"
            fill="#068E4D" />
          <path id="Vector_6"
            d="M123.23 173.34H132.39C132.823 173.34 133.252 173.425 133.651 173.591C134.051 173.757 134.414 174 134.72 174.307C135.026 174.614 135.268 174.977 135.432 175.378C135.597 175.778 135.681 176.207 135.68 176.64V182.35C135.681 182.783 135.597 183.212 135.432 183.612C135.268 184.012 135.026 184.376 134.72 184.683C134.414 184.989 134.051 185.232 133.651 185.398C133.252 185.564 132.823 185.65 132.39 185.65H115.57C115.22 185.65 114.884 185.511 114.637 185.263C114.389 185.016 114.25 184.68 114.25 184.33V182.33C114.253 179.948 115.199 177.664 116.882 175.979C118.566 174.294 120.848 173.345 123.23 173.34Z"
            stroke="white" stroke-width="2" stroke-linecap="round" stroke-linejoin="round" />
        </g>
        <g id="wing-front-bottom">
          <path id="Vector_7"
            d="M123.23 207.39H132.39C132.823 207.39 133.252 207.305 133.651 207.139C134.051 206.973 134.414 206.729 134.72 206.423C135.026 206.116 135.268 205.752 135.432 205.352C135.597 204.952 135.681 204.523 135.68 204.09V198.38C135.681 197.947 135.597 197.518 135.432 197.118C135.268 196.718 135.026 196.354 134.72 196.047C134.414 195.741 134.051 195.497 133.651 195.331C133.252 195.166 132.823 195.08 132.39 195.08H115.57C115.22 195.08 114.884 195.219 114.637 195.467C114.389 195.714 114.25 196.05 114.25 196.4V198.4C114.25 200.787 115.198 203.076 116.886 204.764C118.574 206.452 120.863 207.4 123.25 207.4"
            fill="#068E4D" />
          <path id="Vector_8"
            d="M123.23 207.39H132.39C132.823 207.39 133.252 207.305 133.651 207.139C134.051 206.973 134.414 206.729 134.72 206.423C135.026 206.116 135.268 205.752 135.432 205.352C135.597 204.952 135.681 204.523 135.68 204.09V198.38C135.681 197.947 135.597 197.518 135.432 197.118C135.268 196.718 135.026 196.354 134.72 196.047C134.414 195.741 134.051 195.497 133.651 195.331C133.252 195.166 132.823 195.08 132.39 195.08H115.57C115.22 195.08 114.884 195.219 114.637 195.467C114.389 195.714 114.25 196.05 114.25 196.4V198.4C114.253 200.782 115.199 203.065 116.882 204.751C118.566 206.436 120.848 207.385 123.23 207.39Z"
            stroke="white" stroke-width="2" stroke-linecap="round" stroke-linejoin="round" />
        </g>
      </g>
    </g>
    <path id="cloud-up-left-line" d="M68.9531 107.8H131.863" stroke="white" stroke-width="2"
      stroke-miterlimit="10" stroke-linecap="round" />
    <g id="cloud-up-left">
      <path id="Vector_9"
        d="M41.7734 97.5401H77.0634C77.0634 94.2515 78.3699 91.0975 80.6953 88.772C83.0208 86.4466 86.1748 85.1401 89.4634 85.1401C92.7521 85.1401 95.9061 86.4466 98.2316 88.772C100.557 91.0975 101.863 94.2515 101.863 97.5401H119.793"
        stroke="white" stroke-width="2" stroke-miterlimit="10" stroke-linecap="round" />
    </g>
    <path id="cloud-up-right-line" d="M258.961 93.1899H298.741" stroke="white" stroke-width="2"
      stroke-miterlimit="10" stroke-linecap="round" />
    <g id="cloud-up-right">
      <path id="Vector_10"
        d="M278.748 82.9098H251.388C251.388 79.6211 250.082 76.4671 247.757 74.1416C245.431 71.8162 242.277 70.5098 238.988 70.5098C235.7 70.5098 232.546 71.8162 230.22 74.1416C227.895 76.4671 226.588 79.6211 226.588 82.9098H208.648"
        stroke="white" stroke-width="2" stroke-miterlimit="10" stroke-linecap="round" />
      <path id="Vector_11" d="M287.008 82.9097H309.208" stroke="white" stroke-width="2"
        stroke-miterlimit="10" stroke-linecap="round" />
    </g>
    <path id="smoke-up" d="M106.247 179.49H84.0469" stroke="white" stroke-width="2"
      stroke-miterlimit="10" stroke-linecap="round" />
    <path id="smoke-bottom" d="M106.247 201.23H84.0469" stroke="white" stroke-width="2"
      stroke-miterlimit="10" stroke-linecap="round" />
    <path id="smoke-middle" d="M106.253 190.98H68.7734" stroke="white" stroke-width="2"
      stroke-miterlimit="10" stroke-linecap="round" />
    <g id="mountain">
      <path id="Vector_12"
        d="M289.941 327.88H244.881L212.801 296.58C212.46 296.292 212.028 296.133 211.581 296.133C211.135 296.133 210.702 296.292 210.361 296.58L200.161 306.81C199.849 307.08 199.449 307.229 199.036 307.229C198.623 307.229 198.224 307.08 197.911 306.81L178.911 286.64C178.478 286.273 177.929 286.072 177.361 286.072C176.794 286.072 176.245 286.273 175.811 286.64L149.391 312.28C149.08 312.552 148.68 312.702 148.266 312.702C147.853 312.702 147.453 312.552 147.141 312.28L144.511 309.36C144.196 309.071 143.784 308.911 143.356 308.911C142.929 308.911 142.517 309.071 142.201 309.36L124.631 329H80.7812"
        stroke="white" stroke-width="2" stroke-miterlimit="10" stroke-linecap="round" />
      <path id="Vector_13"
        d="M289.941 328H200.151C199.291 328 198.591 328 197.901 328H178.901C177.401 328 176.671 328 175.801 328H143.501C142.411 328 141.841 328 141.191 328H80.7812"
        stroke="white" stroke-width="2" stroke-miterlimit="10" stroke-linecap="round" />
    </g>
  </g>
</svg>